<svg xmlns="http://www.w3.org/2000/svg" id="Isolation_Mode" data-name="Isolation Mode" viewBox="0 0 138.9 57.69"><defs><style>.cls-1{fill:#fff}</style></defs><path d="M54.1 57.58h-1.13v-4.83h1.13c2.13 0 3.98-.44 5.5-1.03 1.52-.59 2.86-1.42 3.96-2.44 1.11-1.02 2.01-2.24 2.68-3.63.66-1.37.98-2.83.98-4.33V.54h5.18v40.74c0 2.25-.47 4.39-1.4 6.4-.92 1.99-2.2 3.74-3.82 5.21-1.6 1.45-3.5 2.61-5.63 3.44-2.12.82-4.64 1.24-7.46 1.24ZM82.86 43.6h-5.17V.32h12.55c1.98 0 3.87.38 5.6 1.13 1.73.74 3.26 1.76 4.55 3.03 1.3 1.27 2.33 2.76 3.05 4.43.72 1.67 1.08 3.49 1.08 5.37s-.39 3.8-1.17 5.47c-.77 1.65-1.8 3.13-3.07 4.37-1.28 1.25-2.82 2.24-4.57 2.94-1.76.7-3.64 1.06-5.6 1.06h-7.24V43.6Zm0-20.44h7.25c1.29 0 2.5-.22 3.6-.67 1.1-.45 2.07-1.08 2.9-1.87.83-.81 1.5-1.77 2.01-2.86.49-1.07.73-2.24.73-3.49s-.24-2.37-.7-3.46c-.49-1.09-1.14-2.06-1.95-2.86-.81-.81-1.79-1.46-2.9-1.95-1.1-.48-2.3-.72-3.56-.72h-7.37v17.87ZM123.02 43.6 138.9.54h-5.27l-.26.75c-1.21 3.36-2.41 6.67-3.62 9.95-1.21 3.29-2.33 6.39-3.38 9.3-1.16 3.13-2.25 6.09-3.27 8.85-.62 1.65-1.17 3.34-1.7 5.05L109.37.54h-5.26l15.92 43.06h2.99ZM82.93 57.62l-.45-1.36h-2.72l-.46 1.36h-1.56l2.78-7.67h1.17l2.8 7.67h-1.56Zm-1.79-5.4-.96 2.79h1.9l-.94-2.79ZM88.09 57.69c-1.16 0-2.05-.24-2.8-1.01l.97-.97c.49.48 1.14.64 1.85.64.88 0 1.35-.33 1.35-.95 0-.27-.07-.5-.24-.64-.15-.14-.32-.22-.67-.27l-.93-.13c-.66-.09-1.14-.3-1.49-.63-.36-.37-.55-.86-.55-1.51 0-1.37 1.02-2.32 2.67-2.32 1.06 0 1.82.25 2.48.89l-.95.94c-.48-.46-1.06-.53-1.57-.53-.79 0-1.18.44-1.18.97 0 .19.06.4.23.54.15.14.4.26.71.3l.9.13c.7.09 1.14.29 1.46.59.41.39.59.95.59 1.62 0 1.49-1.24 2.32-2.84 2.32ZM97.52 56.85c-.54.54-1.2.84-2.07.84s-1.54-.3-2.07-.84c-.78-.77-.76-1.73-.76-3.06s-.02-2.28.76-3.05c.54-.54 1.2-.84 2.07-.84s1.53.3 2.07.84c.77.77.76 1.73.76 3.05s.01 2.28-.76 3.06Zm-1.11-5.21c-.22-.25-.55-.41-.96-.41s-.75.16-.97.41c-.29.32-.37.68-.37 2.15s.08 1.83.37 2.16c.22.25.56.41.97.41s.74-.16.96-.41c.29-.33.37-.68.37-2.16s-.09-1.83-.37-2.15ZM102.91 57.69c-.82 0-1.51-.28-2.07-.84-.33-.33-.54-.72-.62-1.15-.09-.43-.13-1.07-.13-1.91s.04-1.47.13-1.9c.09-.44.29-.82.62-1.15.55-.56 1.25-.84 2.07-.84 1.47 0 2.56.86 2.82 2.42h-1.52c-.16-.66-.57-1.09-1.29-1.09-.41 0-.73.13-.96.4-.31.33-.38.68-.38 2.16s.06 1.83.38 2.16c.23.27.55.4.96.4.72 0 1.13-.43 1.29-1.08h1.52c-.26 1.56-1.35 2.42-2.82 2.42ZM107.56 57.62v-7.67h1.5v7.67h-1.5ZM115.74 57.62l-.46-1.36h-2.72l-.46 1.36h-1.56l2.78-7.67h1.18l2.8 7.67h-1.56Zm-1.78-5.4-.97 2.79h1.9l-.93-2.79ZM123.57 56.89c-.51.5-1.23.73-2.02.73h-2.77v-7.67h2.77c.79 0 1.52.23 2.02.73.86.86.77 1.92.77 3.07s.09 2.26-.77 3.13Zm-1.05-5.12c-.26-.31-.6-.47-1.12-.47h-1.12v4.99h1.12c.51 0 .86-.16 1.12-.47.28-.34.33-.9.33-2.05s-.04-1.65-.33-2ZM131.06 56.85c-.54.54-1.2.84-2.07.84s-1.54-.3-2.08-.84c-.77-.77-.75-1.73-.75-3.06s-.02-2.28.75-3.05c.54-.54 1.2-.84 2.08-.84s1.53.3 2.07.84c.77.77.76 1.73.76 3.05s0 2.28-.76 3.06Zm-1.11-5.21c-.21-.25-.55-.41-.96-.41s-.75.16-.97.41c-.29.32-.37.68-.37 2.15s.07 1.83.37 2.16c.22.25.56.41.97.41s.74-.16.96-.41c.29-.33.38-.68.38-2.16s-.09-1.83-.38-2.15ZM136 57.69c-1.16 0-2.05-.24-2.8-1.01l.97-.97c.49.48 1.14.64 1.85.64.88 0 1.35-.33 1.35-.95 0-.27-.07-.5-.24-.64-.15-.14-.32-.22-.68-.27l-.92-.13c-.66-.09-1.14-.3-1.49-.63-.37-.37-.55-.86-.55-1.51 0-1.37 1.02-2.32 2.67-2.32 1.05 0 1.82.25 2.47.89l-.95.94c-.48-.46-1.06-.53-1.57-.53-.8 0-1.19.44-1.19.97 0 .19.07.4.23.54.15.14.4.26.71.3l.9.13c.7.09 1.14.29 1.47.59.41.39.59.95.59 1.62 0 1.49-1.24 2.32-2.84 2.32ZM15.76 46.75c-1.43-2.07-2.79-5.03-3.44-9.01-1.84-.8-3.55-1.63-5.06-2.46 1.26 3.99 3.75 8.14 8.51 11.48ZM6.74 33.38c1.49.89 3.27 1.81 5.33 2.73-.28-2.79-.2-6.08.42-9.85-2.26-1.08-4.29-2.19-5.99-3.28-.39 2.32-.7 6.18.25 10.4ZM6.78 21.48c1.62 1.07 3.64 2.21 5.99 3.36.42-1.54 1.56-5.23 3.65-9.32-2.23-1.07-4.12-2.15-5.59-3.21-2.62 4.19-3.77 8.15-4.05 9.17ZM18.37 4.34c-2.86 1.88-5.08 4.33-6.78 6.81 1.39.98 3.25 2.05 5.49 3.12 1.48-2.66 3.35-5.4 5.71-7.74-1.58-.89-2.88-1.74-3.9-2.47-.17.1-.35.18-.52.28ZM21.11 44.43l-.07-.02c.25-1.04.54-2.12.84-3.24 1.84.54 6.7 1.77 10.71 2.65 0 0-3.49 1.75-11.48.6ZM23.19 31.36c.09-.3.17-.58.26-.83-3.43-1.08-6.71-2.34-9.65-3.67-.32 2.14-.68 5.92-.16 9.92 2.16.9 4.58 1.79 7.27 2.63.85-3.12 1.73-6.15 2.28-8.05ZM41.21 23.3c-5.25-1.03-10.41-2.51-12.43-3.11-1.76 4.51-3.18 8.26-3.61 9.42 5.35 1.62 9.74 2.72 13.3 3.44.8-2.13 1.98-5.67 2.73-9.74ZM32.56 42.49c3.14-3.36 4.87-6.92 5.4-8.12-3.77-.77-8.16-1.92-13.18-3.44-.08.25-.15.49-.24.83-.53 1.77-1.42 4.85-2.29 8.06 3.87 1.17 7.33 2.05 10.32 2.67ZM17.7 16.12c-2.21 4.29-3.34 8.15-3.65 9.32 2.86 1.32 6.17 2.61 9.81 3.75.32-1.03 1.23-3.42 3.59-9.43-3.64-1.14-6.93-2.38-9.74-3.65ZM49.9 22.96c.13-2.59-.09-5.38-1.07-8.14-.15-.43-.34-.84-.53-1.25-1.77-.05-3.51-.18-5.18-.39.31 3.01.1 6.1-.34 9.01 2.95.51 5.33.75 7.12.77ZM32.52 10.77c-1.08 2.67-2.2 5.48-3.23 8.1 4.66 1.41 8.73 2.41 12.13 3.06.46-2.91.63-6 .28-8.97-3.31-.51-6.39-1.27-9.18-2.19ZM46.65 35.58c-1.99-.09-4.67-.46-7.32-.95-.51 1.19-2.17 4.73-5.22 8.19.37.07.8.17 1.26.28 4.19-1.46 8.18-3.61 11.27-7.51ZM18.38 14.88c2.7 1.22 5.93 2.45 9.57 3.58.05-.11.09-.23.14-.35.94-2.38 2.02-5.12 3.11-7.79-2.69-.96-5.06-2.02-7.08-3.07-2.37 2.27-4.26 4.97-5.74 7.63ZM39.86 33.29c2.91.53 5.59.78 7.44.83.79-1.69 2.02-5.51 2.48-9.77-2.11-.01-4.64-.34-7.23-.8-.74 4.03-1.88 7.54-2.7 9.74ZM5.57 20.64c.4-1.38 1.62-5.15 4.16-9.17-1.42-1.17-2.26-2.3-2.49-3.33-2.47 2.52-4.43 5.52-5.7 8.95 2.36 2.81 4.03 3.54 4.03 3.54ZM26.1 0c-2.81.09-5.55.59-8.15 1.47.22.21.55.5 1.09.92C21.23 1.19 23.59.4 26.09 0ZM5.2 32.42c-.8-4.58-.31-8.52.03-10.29-2.08-1.46-3.48-2.86-4.04-4.07C.11 21.41-.22 24.83.14 28.13c1.19 1.66 5.07 4.29 5.07 4.29ZM10.5 10.32c.66-.95 1.36-1.9 2.17-2.82 1.55-1.75 3.22-3.18 5.03-4.36-.54-.45-.91-.82-1.09-1.07-.03-.03-.03-.06-.04-.09-3.33 1.32-6.04 2.98-8.59 5.45.67 2.11 2.53 2.89 2.53 2.89Z" class="cls-1"/><path d="M5.6 34.3c-2.48-1.52-4.28-3.03-5.21-4.4 1.6 8.72 7.94 16.33 17.23 19.6-7.36-4.1-10.68-9.89-12.02-15.2ZM13.89 38.39c.66 3.53 2.1 7.09 4.91 9.81.35-1.98 1.01-4.68 1.75-7.43-2.35-.74-4.58-1.54-6.65-2.37ZM47.64 12.16c-1.67-3.09-4.21-5.79-7.63-8.03 1.57 2.27 2.47 4.87 2.91 7.59 1.53.2 3.09.37 4.72.44ZM50.14 12.19c-1.36-2.09-3.02-4-4.97-5.65 1.7 1.71 3.07 3.59 4.07 5.64h.9ZM49.84 13.61c.09.25.22.48.31.73 1.03 2.92 1.3 5.85 1.16 8.57 1.04-.08 1.82-.24 2.23-.49 0-3.67-1.22-6.43-2.56-8.83-.36 0-.72.01-1.08.01h-.06ZM51.21 24.29c-.35 3.6-1.36 6.7-2.19 8.74 1.96-2.72 3.59-5.79 4.39-9.11-.57.18-1.42.32-2.2.37ZM23.93 5.49c2.19-1.93 4.74-3.51 7.72-4.37-4.16-.33-7.93.43-11.33 2.17.96.65 2.17 1.4 3.62 2.2ZM31.74 9c1.07-2.61 2.1-5.07 2.98-7.02-3.71.46-6.85 2.04-9.46 4.23 1.86.95 4.04 1.91 6.47 2.79ZM41.51 11.52c-.67-3.63-2.42-6.65-5.45-9.12-.9 1.96-1.84 4.21-3 7.05 2.57.85 5.38 1.57 8.45 2.07Z" class="cls-1"/><path d="M56.33 22.99s-3.8 34.97-37.16 29.17l1.58-6.36s8.12 2.29 19.01-3.03c12.17-5.94 14.35-17.33 15.09-19.23l1.48-.56Z" class="cls-1"/></svg>